# Wavefront OBJ file
# Creator: Ultimate Unwrap3D Pro (x64) v3.50.14
# Website: http://www.unwrap3d.com
# Time: Mon Mar 13 14:38:43 2017
# num_vertices: 56
# num_vertex_normals: 56
# num_uvs: 56
# num_faces: 14
# num_groups: 1

mtllib cardbox.mtl

v -0.890660 0.265366 0.439551
v 0.890660 0.265366 0.439551
v 0.890660 0.669674 0.439551
v -0.890660 0.669674 0.439551
v 0.890660 0.265366 0.439551
v 0.890660 0.265366 -0.443467
v 0.890660 0.669674 -0.443467
v 0.890660 0.669674 0.439551
v -0.890660 0.265366 -0.443467
v -0.890660 0.265366 0.439551
v -0.890660 0.669674 0.439551
v -0.890660 0.669674 -0.443467
v 0.890660 0.265366 -0.443467
v -0.890660 0.265366 -0.443467
v -0.890660 0.669674 -0.443467
v 0.890660 0.669674 -0.443467
v 0.910433 0.265366 -0.467520
v 0.890660 0.265366 -0.443467
v 0.890660 0.265366 0.439551
v 0.910433 0.265366 0.467520
v -0.910433 0.265366 -0.467520
v -0.890660 0.265366 -0.443467
v 0.890660 0.265366 -0.443467
v 0.910433 0.265366 -0.467520
v -0.910433 0.265366 0.467520
v -0.890660 0.265366 0.439551
v -0.890660 0.265366 -0.443467
v -0.910433 0.265366 -0.467520
v 0.910433 0.265366 0.467520
v 0.890660 0.265366 0.439551
v -0.890660 0.265366 0.439551
v -0.910433 0.265366 0.467520
v 0.910433 -0.669674 0.467520
v 0.910433 0.265366 0.467520
v -0.910433 0.265366 0.467520
v -0.910433 -0.669674 0.467520
v -0.910433 -0.669674 -0.467520
v -0.910433 0.265366 -0.467520
v 0.910433 0.265366 -0.467520
v 0.910433 -0.669674 -0.467520
v -0.910433 -0.669674 -0.467520
v -0.910433 -0.669674 0.467520
v -0.910433 0.265366 0.467520
v -0.910433 0.265366 -0.467520
v 0.910433 -0.669674 -0.467520
v 0.910433 -0.669674 0.467520
v -0.910433 -0.669674 0.467520
v -0.910433 -0.669674 -0.467520
v 0.910433 0.265366 -0.467520
v 0.910433 0.265366 0.467520
v 0.910433 -0.669674 0.467520
v 0.910433 -0.669674 -0.467520
v -0.890660 0.669674 -0.443467
v -0.890660 0.669674 0.439551
v 0.890660 0.669674 0.439551
v 0.890660 0.669674 -0.443467
# num_vertices: 56

vn 0.000000 0.000000 1.000000
vn 0.000000 0.000000 1.000000
vn 0.000000 0.000000 1.000000
vn 0.000000 0.000000 1.000000
vn 1.000000 0.000000 0.000000
vn 1.000000 0.000000 0.000000
vn 1.000000 0.000000 0.000000
vn 1.000000 0.000000 0.000000
vn -1.000000 0.000000 0.000000
vn -1.000000 0.000000 0.000000
vn -1.000000 0.000000 0.000000
vn -1.000000 0.000000 0.000000
vn 0.000000 0.000000 -1.000000
vn 0.000000 0.000000 -1.000000
vn 0.000000 0.000000 -1.000000
vn 0.000000 0.000000 -1.000000
vn 0.000000 1.000000 0.000000
vn 0.000000 1.000000 0.000000
vn 0.000000 1.000000 0.000000
vn 0.000000 1.000000 0.000000
vn 0.000000 1.000000 0.000000
vn 0.000000 1.000000 0.000000
vn 0.000000 1.000000 0.000000
vn 0.000000 1.000000 0.000000
vn 0.000000 1.000000 0.000000
vn 0.000000 1.000000 0.000000
vn 0.000000 1.000000 0.000000
vn 0.000000 1.000000 0.000000
vn 0.000000 1.000000 0.000000
vn 0.000000 1.000000 0.000000
vn 0.000000 1.000000 0.000000
vn 0.000000 1.000000 0.000000
vn 0.000000 0.000000 1.000000
vn 0.000000 0.000000 1.000000
vn 0.000000 0.000000 1.000000
vn 0.000000 0.000000 1.000000
vn 0.000000 0.000000 -1.000000
vn 0.000000 0.000000 -1.000000
vn 0.000000 0.000000 -1.000000
vn 0.000000 0.000000 -1.000000
vn -1.000000 0.000000 0.000000
vn -1.000000 0.000000 0.000000
vn -1.000000 0.000000 0.000000
vn -1.000000 0.000000 0.000000
vn 0.000000 -1.000000 0.000000
vn 0.000000 -1.000000 0.000000
vn 0.000000 -1.000000 0.000000
vn 0.000000 -1.000000 0.000000
vn 1.000000 0.000000 0.000000
vn 1.000000 0.000000 0.000000
vn 1.000000 0.000000 0.000000
vn 1.000000 0.000000 0.000000
vn 0.000000 1.000000 0.000000
vn 0.000000 1.000000 0.000000
vn 0.000000 1.000000 0.000000
vn 0.000000 1.000000 0.000000
# num_vertex_normals: 56

vt 0.841773 0.049461
vt 0.938773 0.049461
vt 0.938773 0.071477
vt 0.841773 0.071477
vt 0.938773 0.049461
vt 0.938773 0.049461
vt 0.938773 0.071477
vt 0.938773 0.071477
vt 0.841773 0.049461
vt 0.841773 0.049461
vt 0.841773 0.071477
vt 0.841773 0.071477
vt 0.938773 0.049461
vt 0.841773 0.049461
vt 0.841773 0.071477
vt 0.938773 0.071477
vt 0.676876 0.359914
vt 0.670602 0.352282
vt 0.670602 0.072109
vt 0.676876 0.063235
vt 0.054857 0.022632
vt 0.061131 0.015000
vt 0.626326 0.015000
vt 0.632599 0.022632
vt 0.648464 0.063235
vt 0.654738 0.072109
vt 0.654738 0.352282
vt 0.648464 0.359914
vt 0.632599 0.038496
vt 0.626326 0.047371
vt 0.061131 0.047371
vt 0.054857 0.038496
vt 0.054857 0.359914
vt 0.054857 0.063235
vt 0.632600 0.063235
vt 0.632600 0.359914
vt 0.367400 0.672457
vt 0.367400 0.375778
vt 0.945143 0.375778
vt 0.945143 0.672457
vt 0.054857 0.375778
vt 0.351536 0.375778
vt 0.351536 0.672457
vt 0.054857 0.672457
vt 0.945143 0.688321
vt 0.945143 0.985000
vt 0.367400 0.985000
vt 0.367400 0.688321
vt 0.351536 0.985000
vt 0.054857 0.985000
vt 0.054857 0.688321
vt 0.351536 0.688321
vt 0.841773 0.071477
vt 0.841773 0.071477
vt 0.938773 0.071477
vt 0.938773 0.071477
# num_uvs: 56

g cardbox

usemtl def_surf_mat
f 53/53/53 54/54/54 55/55/55 56/56/56 
f 49/49/49 50/50/50 51/51/51 52/52/52 
f 45/45/45 46/46/46 47/47/47 48/48/48 
f 41/41/41 42/42/42 43/43/43 44/44/44 
f 37/37/37 38/38/38 39/39/39 40/40/40 
f 33/33/33 34/34/34 35/35/35 36/36/36 
f 29/29/29 30/30/30 31/31/31 32/32/32 
f 25/25/25 26/26/26 27/27/27 28/28/28 
f 21/21/21 22/22/22 23/23/23 24/24/24 
f 17/17/17 18/18/18 19/19/19 20/20/20 
f 13/13/13 14/14/14 15/15/15 16/16/16 
f 9/9/9 10/10/10 11/11/11 12/12/12 
f 5/5/5 6/6/6 7/7/7 8/8/8 
f 1/1/1 2/2/2 3/3/3 4/4/4 
# num_faces: 14

