# Wavefront OBJ file
# Creator: Ultimate Unwrap3D Pro (x64) v3.50.14
# Website: http://www.unwrap3d.com
# Time: Wed Mar 15 21:33:25 2017
# num_vertices: 18
# num_vertex_normals: 18
# num_uvs: 18
# num_faces: 5
# num_groups: 1

v -1.378080 -0.000051 1.193450
v 0.000000 -0.000051 -1.193450
v 1.378080 -0.000051 1.193450
v 1.378080 0.692177 1.193450
v 0.000000 0.692177 -1.193450
v -1.378080 0.692177 1.193450
v 1.378080 -0.000051 1.193450
v 1.378080 0.692177 1.193450
v -1.378080 0.692177 1.193450
v -1.378080 -0.000051 1.193450
v 0.000000 -0.000051 -1.193450
v 0.000000 0.692177 -1.193450
v 1.378080 0.692177 1.193450
v 1.378080 -0.000051 1.193450
v -1.378080 -0.000051 1.193450
v -1.378080 0.692177 1.193450
v 0.000000 0.692177 -1.193450
v 0.000000 -0.000051 -1.193450
# num_vertices: 18

vn 0.000000 -1.000000 0.000000
vn 0.000000 -1.000000 0.000000
vn 0.000000 -1.000000 0.000000
vn 0.000000 1.000000 0.000000
vn 0.000000 1.000000 0.000000
vn 0.000000 1.000000 0.000000
vn 0.000000 0.000000 1.000000
vn 0.000000 0.000000 1.000000
vn 0.000000 0.000000 1.000000
vn 0.000000 0.000000 1.000000
vn 0.866025 0.000000 -0.500001
vn 0.866025 0.000000 -0.500001
vn 0.866025 0.000000 -0.500001
vn 0.866025 0.000000 -0.500001
vn -0.866025 0.000000 -0.500001
vn -0.866025 0.000000 -0.500001
vn -0.866025 0.000000 -0.500001
vn -0.866025 0.000000 -0.500001
# num_vertex_normals: 18

vt 0.748800 0.174677
vt 0.748800 0.309289
vt 0.284638 0.309289
vt 0.284638 0.174677
vt 0.748800 0.339442
vt 0.748800 0.474055
vt 0.284638 0.474055
vt 0.284638 0.339442
vt 0.784703 0.007628
vt 0.784703 0.142240
vt 0.248734 0.142240
vt 0.248734 0.007628
vt 0.953125 0.519851
vt 0.685140 0.984013
vt 0.417156 0.519851
vt 0.062500 0.988466
vt 0.330485 0.524304
vt 0.598469 0.988466
# num_uvs: 18

g Form1

f 15/1/15 16/2/16 17/3/17 18/4/18 
f 11/5/11 12/6/12 13/7/13 14/8/14 
f 7/9/7 8/10/8 9/11/9 10/12/10 
f 4/13/4 5/14/5 6/15/6 
f 1/16/1 2/17/2 3/18/3 
# num_faces: 5

